# xmcd
#
# Track frame offsets:
#	150
#	23692
#	38428
#	54782
#	80054
#	103862
#	128273
#	152585
#	170416
#	182074
#	210267
#	238877
#	274182
#
# Disc length: 3866 seconds
#
# Revision: 1
# Processed by: cddbd v1.5.2PL0 Copyright (c) Steve Scherf et al.
# Submitted via: audiograbber 1.81.03
#
DISCID=9a0f180d
DTITLE=FamilyStyle - Paddy's Blues
DYEAR=2009
DGENRE=Blues
TTITLE0=Rollin' Over New Orleans
TTITLE1=Flat Land Shuffle
TTITLE2=I Ain't Breaking Down
TTITLE3=You Don't Have To Go
TTITLE4=Down To The Bone
TTITLE5=Mad Love (I Want You To Love Me)
TTITLE6=Pub Crawl
TTITLE7=Bourbon Dream
TTITLE8=Left My Town
TTITLE9=(The Only) Medicine For You
TTITLE10=Every Morning
TTITLE11=Paddy's Boogie
TTITLE12=Nine Below Zero
EXTD=
EXTT0=
EXTT1=
EXTT2=
EXTT3=
EXTT4=
EXTT5=
EXTT6=
EXTT7=
EXTT8=
EXTT9=
EXTT10=
EXTT11=
EXTT12=
PLAYORDER=
